<?xml version="1.0" encoding="utf-8"?>
<!-- Generator: Adobe Illustrator 17.0.0, SVG Export Plug-In . SVG Version: 6.00 Build 0)  -->
<!DOCTYPE svg PUBLIC "-//W3C//DTD SVG 1.1//EN" "http://www.w3.org/Graphics/SVG/1.1/DTD/svg11.dtd">
<svg version="1.1" id="Capa_1" xmlns="http://www.w3.org/2000/svg" xmlns:xlink="http://www.w3.org/1999/xlink" x="0px" y="0px"
	 width="64px" height="64px" viewBox="0 0 64 64" enable-background="new 0 0 64 64" xml:space="preserve">
<path d="M54.031,16.688c0-0.664,0-1.328,0-1.991c0-0.259-0.112-0.495-0.283-0.675c0.023-0.391-0.211-0.8-0.717-0.8
	c-4.869,0-9.738,0-14.607,0c-7.563,0-15.127,0-22.69,0c-1.491,0-2.982,0-4.473,0c-0.293,0-0.487,0.145-0.602,0.337
	c-0.233,0.188-0.397,0.465-0.397,0.774c0,0.665,0,1.329,0,1.994c0,0.003-0.001,0.004-0.001,0.007c0,5.942,0,11.884,0,17.825
	c0,3.475,0,6.949,0,10.425c0,0.135,0.032,0.254,0.077,0.365c0.007,0.019,0.018,0.034,0.026,0.052
	c0.042,0.089,0.096,0.168,0.161,0.238c0.024,0.026,0.046,0.051,0.072,0.074c0.054,0.047,0.112,0.084,0.174,0.118
	c0.085,0.05,0.175,0.082,0.273,0.105c0.045,0.011,0.09,0.023,0.136,0.028c0.028,0.002,0.053,0.017,0.082,0.017
	c4.869,0,9.738,0,14.607,0c1.11,0,2.22,0,3.33,0c-1.114-0.315-2.162-0.915-2.92-1.782c-0.058-0.066-0.105-0.146-0.16-0.217
	c-0.001,0-0.001,0-0.002,0c-3.461,0-6.923,0-10.383,0c-0.672,0-1.345,0-2.017,0h0c3.86-3.771,7.72-7.542,11.581-11.311
	c1.055-1.03,2.109-2.061,3.164-3.091c1.06,0.717,2.119,1.435,3.178,2.151c0.006,0.004,0.012,0.006,0.017,0.009
	c0.056,0.039,0.115,0.071,0.177,0.096c0.003,0.001,0.006,0.003,0.009,0.004c0.042,0.016,0.085,0.027,0.129,0.037
	c0.223,0.053,0.423-0.006,0.6-0.111c0.025-0.013,0.056-0.02,0.078-0.035c0.021-0.014,0.041-0.027,0.062-0.041
	c0.001,0,0.001,0,0.002-0.001c1.164-0.768,2.329-1.536,3.493-2.303c0.28,0.277,0.561,0.554,0.84,0.831
	c0.334-0.616,0.653-1.238,0.954-1.871c-0.029-0.028,0.037-0.167,0.099-0.208c0.154-0.328,0.317-0.652,0.465-0.983
	c0.049-0.109,0.104-0.222,0.159-0.334c-0.003-0.001-0.006-0.002-0.009-0.004c-0.913-0.44-1.707-1.212-1.966-2.179v0
	c-1.532,1.01-3.064,2.02-4.596,3.03c-4.928-3.336-9.858-6.672-14.787-10.009c-1.25-0.846-2.499-1.691-3.749-2.538
	c4.084,0,8.167,0,12.251,0c5.586,0,11.172,0,16.758,0c0.94-0.753,2.259-1.098,3.396-0.7c0.43,0.15,0.83,0.397,1.201,0.7h0
	c0.445,0,0.891,0,1.336,0h0c0.873,0,1.747,0,2.621,0c-0.849,0.56-1.698,1.12-2.547,1.68c0.477,0.802,0.811,1.681,0.934,2.48
	c0.063,0.412,0.094,0.821,0.104,1.228c0.786-0.519,1.572-1.038,2.359-1.556v0c0,4.698,0,9.396,0,14.094c0,3.059,0,6.116,0,9.174v0
	c-2.84-2.809-5.679-5.617-8.519-8.425c-0.386,0.557-0.771,1.113-1.16,1.666c0,0,0,0,0,0.001c2.168,2.144,4.335,4.287,6.503,6.432
	c0.703,0.696,1.406,1.392,2.11,2.087c0,0,0.001,0.001,0.001,0.001c-4.181,0-8.36,0-12.541,0c-0.867,0-1.733,0-2.601,0
	c-0.964,0.872-2.087,1.625-3.305,1.999c5.347,0,10.693,0,16.04,0c1.491,0,2.982,0,4.474,0c0.545,0,1-0.455,1-1
	c0-5.983,0-11.967,0-17.95c0-3.312,0-6.624,0-9.936C54.032,16.692,54.031,16.69,54.031,16.688z M14.448,40.073
	c-0.729,0.712-1.458,1.424-2.186,2.136c0,0,0-0.001,0-0.001c0-5.817,0-11.634,0-17.45c0,0,0-0.001,0-0.001c0-2.18,0-4.359,0-6.541
	c4.593,3.108,9.186,6.216,13.779,9.325c0.244,0.165,0.487,0.33,0.73,0.495c0,0,0,0,0.001,0
	C22.664,32.048,18.557,36.06,14.448,40.073z M34.295,34.572c-0.418-0.172-0.837-0.344-1.255-0.514
	c-0.28-0.115-0.587-0.312-0.899-0.252c-1.255,0.245-1.899,1.125-2.643,2.073c-0.94,1.199-1.879,2.418-2.645,3.738
	c-0.226,0.389-0.304,0.895-0.272,1.406c-0.009,0.065-0.003,0.131,0.013,0.195c0.071,0.608,0.301,1.207,0.653,1.61
	c0.253,0.289,0.555,0.533,0.876,0.752c1.817,0,3.633,0,5.451,0c0.969-0.606,1.827-1.444,2.524-2.249
	c1.426-1.651,2.637-3.519,3.891-5.298c0.457-0.648,0.915-1.299,1.372-1.95c0,0,0,0-0.001-0.001c0.389-0.554,0.773-1.111,1.158-1.668
	c1.284-1.861,2.542-3.742,3.702-5.673c1.036-1.725,1.91-3.692,2.067-5.72c0,0,0.001-0.001,0.001-0.001
	c0.045-0.586,0.039-1.178-0.052-1.771c-0.113-0.731-0.395-1.44-0.776-2.075c-0.283,0.188-0.567,0.375-0.852,0.562
	c0.174,0.278,0.331,0.567,0.441,0.878c0.356,1.016,0.353,2.076,0.156,3.12c-0.259,1.383-0.865,2.737-1.51,3.914
	c-0.946,1.733-2.114,3.362-3.213,5.001c-0.232,0.346-0.473,0.686-0.707,1.03c-0.38,0.561-0.765,1.119-1.15,1.676
	c0,0,0,0,0.001,0.001c-0.389,0.564-0.771,1.134-1.163,1.694c-1.293,1.846-2.55,3.762-4.001,5.49c-1.326,1.58-3.32,3.365-5.551,2.805
	c-0.673-0.17-1.259-0.578-1.768-1.035c-0.268-0.241-0.41-0.613-0.49-0.992c1.81-1.187,3.532-2.66,4.514-4.62
	c0.249-0.497,0.486-1.094,0.582-1.687c0.045,0.019,0.089,0.036,0.133,0.055c0.407,0.166,0.812,0.332,1.221,0.5
	c1.547,0.634,2.826-1.104,3.588-2.192c0.406-0.581,0.778-1.186,1.131-1.803c0,0,0,0-0.001-0.001c0.345-0.605,0.667-1.223,0.973-1.85
	c0.546-1.116,1.043-2.256,1.52-3.39c0.131-0.312,0.142-0.559,0.085-0.768c-0.001,0-0.001,0.001-0.002,0.001
	c-0.126-0.474-0.634-0.738-1.155-0.995c0.023-0.01,0.045-0.011,0.068-0.026c2.16-1.369,4.051-3.174,5.221-5.47
	c0.146-0.287,0.283-0.586,0.406-0.894c0,0,0.001-0.001,0.001-0.001c0.125-0.312,0.234-0.632,0.324-0.957
	c0.127,0.164,0.238,0.338,0.347,0.514c0.284-0.187,0.568-0.374,0.852-0.562c-0.034-0.057-0.064-0.118-0.101-0.174
	c-0.249-0.384-0.589-0.829-0.978-1.176c-0.029-0.037-0.062-0.067-0.103-0.091c-0.198-0.163-0.405-0.305-0.627-0.382
	c-0.816-0.286-1.98,0.023-2.508,0.745c-0.268,0.364-0.533,0.729-0.801,1.093c-1.127,1.541-2.254,3.082-3.382,4.622
	c-0.286,0.391-0.571,0.781-0.858,1.172c-0.099,0.136-0.11,0.27-0.07,0.385c0,0.008,0.001,0.015,0.001,0.023
	c0.647-0.427,1.296-0.854,1.943-1.282c1.328-1.814,2.656-3.629,3.984-5.443c0.01-0.005,0.023-0.014,0.055-0.038
	c0.187-0.142,0.394-0.256,0.614-0.334c0.311-0.11,0.568-0.05,0.8,0.084c-0.023,0.117-0.045,0.233-0.072,0.349
	c-0.155,0.639-0.397,1.254-0.689,1.842c-0.119,0.241-0.251,0.473-0.387,0.702c0,0-0.001,0.001-0.002,0.001
	c-1.085,1.819-2.692,3.28-4.476,4.409c-0.209,0.132-0.261,0.341-0.218,0.53c-0.309-0.206-0.538-0.454-0.549-0.817
	c0.313-0.428,0.626-0.856,0.939-1.284c-0.647,0.427-1.296,0.854-1.943,1.282c-0.042,0.897,0.599,1.469,1.372,1.843
	c0.312,0.151,0.684,0.27,0.943,0.508c0.084,0.076,0.064,0.122,0.035,0.227c-0.032,0.118-0.091,0.235-0.137,0.354
	c0,0,0.001-0.001,0.002-0.001c-0.149,0.384-0.338,0.766-0.501,1.131c-0.226,0.506-0.459,1.018-0.7,1.528
	c-0.299,0.631-0.615,1.256-0.954,1.87c0,0,0,0,0.001,0.001c-0.565,1.024-1.193,2.011-1.934,2.895
	c-0.325,0.389-0.662,0.729-1.166,0.875c-0.175,0.051-0.359,0.054-0.538,0.04C34.67,34.68,34.356,34.598,34.295,34.572z
	 M31.349,36.098c-0.761,1.646-2.147,2.926-3.626,3.967c0.193-0.407,0.526-0.802,0.739-1.118c0.479-0.708,0.994-1.393,1.517-2.069
	c0.536-0.694,1.007-1.423,1.74-1.832C31.638,35.403,31.505,35.761,31.349,36.098z M30.604,44.455
	c-0.873-0.051-1.745-0.37-2.482-0.873c1.817,0,3.634,0,5.451,0C32.669,44.149,31.668,44.517,30.604,44.455z"/>
</svg>
